<?xml version="1.0" encoding="UTF-8" ?>
<svg height="16px" viewBox="0 0 16 16" width="16px" xmlns="http://www.w3.org/2000/svg">
<path d="m7 11v4l1 1 1-1v-4z" fill="#2e3434" fill-opacity="0.34902"/><path d="m5-1.575e-7c-0.55078 0-1 0.44922-1 1 0 0.55078 0.44922 1 1 1h0.14062l0.51562 3.5938c-1.6328 0.86719-2.6523 2.5586-2.6562 4.4062h10c-0.0039-1.8477-1.0234-3.5391-2.6562-4.4062l0.51172-3.5938h0.14453c0.55078 0 1-0.44922 1-1 0-0.26562-0.10547-0.51953-0.29297-0.70703s-0.44141-0.29297-0.70703-0.29297zm2.1621 2h1.6738l-0.66992 4.7012 1.2402 0.6582c0.28729 0.15258 0.46244 0.41539 0.67969 0.64062h-4.1699c0.21724-0.22524 0.3924-0.48805 0.67969-0.64062l1.2402-0.6582z" fill="#2e3434" fill-opacity="0.34902"/></svg>
